<svg xmlns="http://www.w3.org/2000/svg" viewBox="0 0 430 760" role="img" aria-label="Cicekli davetiye cercevesi">
  <defs>
    <radialGradient id="glow" cx="50%" cy="24%" r="52%">
      <stop offset="0" stop-color="#f0d8a2" stop-opacity=".55"/>
      <stop offset=".55" stop-color="#f0d8a2" stop-opacity=".12"/>
      <stop offset="1" stop-color="#f0d8a2" stop-opacity="0"/>
    </radialGradient>
    <linearGradient id="stem" x1="0" x2="1">
      <stop offset="0" stop-color="#6e7d62"/>
      <stop offset="1" stop-color="#9ba884"/>
    </linearGradient>
  </defs>
  <rect width="430" height="760" fill="url(#glow)"/>
  <g fill="none" stroke="url(#stem)" stroke-linecap="round" stroke-width="2.4" opacity=".72">
    <path d="M58 146C96 70 176 34 246 42c62 7 111 44 139 94"/>
    <path d="M382 550c-45 77-129 114-210 96-58-13-105-50-133-102"/>
    <path d="M38 270c39 8 66 33 78 76"/>
    <path d="M392 265c-38 10-65 36-79 78"/>
  </g>
  <g fill="#6e7d62" opacity=".72">
    <ellipse cx="82" cy="124" rx="11" ry="26" transform="rotate(44 82 124)"/>
    <ellipse cx="122" cy="83" rx="10" ry="25" transform="rotate(58 122 83)"/>
    <ellipse cx="330" cy="111" rx="10" ry="25" transform="rotate(-45 330 111)"/>
    <ellipse cx="358" cy="158" rx="9" ry="24" transform="rotate(-28 358 158)"/>
    <ellipse cx="92" cy="590" rx="11" ry="27" transform="rotate(-132 92 590)"/>
    <ellipse cx="333" cy="594" rx="11" ry="27" transform="rotate(132 333 594)"/>
    <ellipse cx="68" cy="308" rx="9" ry="22" transform="rotate(118 68 308)"/>
    <ellipse cx="363" cy="309" rx="9" ry="22" transform="rotate(-118 363 309)"/>
  </g>
  <g fill="#f8f1e9" stroke="#c9b18a" stroke-width="1.5">
    <circle cx="66" cy="153" r="16"/>
    <circle cx="99" cy="95" r="14"/>
    <circle cx="299" cy="73" r="15"/>
    <circle cx="371" cy="189" r="13"/>
    <circle cx="64" cy="534" r="14"/>
    <circle cx="128" cy="630" r="16"/>
    <circle cx="297" cy="632" r="16"/>
    <circle cx="366" cy="538" r="14"/>
  </g>
  <g fill="#b97d7a" opacity=".72">
    <circle cx="52" cy="184" r="5"/>
    <circle cx="143" cy="65" r="5"/>
    <circle cx="334" cy="72" r="5"/>
    <circle cx="392" cy="214" r="5"/>
    <circle cx="41" cy="506" r="5"/>
    <circle cx="152" cy="655" r="5"/>
    <circle cx="273" cy="655" r="5"/>
    <circle cx="391" cy="506" r="5"/>
  </g>
  <g fill="#b7935f" opacity=".55">
    <circle cx="215" cy="96" r="3"/>
    <circle cx="230" cy="132" r="2.5"/>
    <circle cx="188" cy="120" r="2.5"/>
    <circle cx="216" cy="596" r="3"/>
    <circle cx="242" cy="566" r="2.5"/>
    <circle cx="187" cy="564" r="2.5"/>
  </g>
</svg>
